<?xml version="1.0" encoding="UTF-8" standalone="no"?>
<!DOCTYPE svg PUBLIC "-//W3C//DTD SVG 1.1//EN" "http://www.w3.org/Graphics/SVG/1.1/DTD/svg11.dtd">
<svg width="100%" height="100%" viewBox="0 0 320 128" version="1.1" xmlns="http://www.w3.org/2000/svg" xmlns:xlink="http://www.w3.org/1999/xlink" xml:space="preserve" xmlns:serif="http://www.serif.com/" style="fill-rule:evenodd;clip-rule:evenodd;stroke-linejoin:round;stroke-miterlimit:2;">
    <g transform="matrix(1.20959,-0.698359,0.698359,1.20959,-89.803,-42.1817)">
        <path d="M57.019,167.806C56.712,168.338 56.063,168.566 55.491,168.343C55.491,168.342 55.491,168.342 55.49,168.342C48.487,165.612 32.982,156.66 27.116,151.96C23.566,149.116 20.981,144.638 20.292,140.142C19.155,132.711 19.155,114.808 20.292,107.378C20.981,102.881 23.566,98.404 27.116,95.559C32.982,90.859 48.487,81.908 55.49,79.177C57.147,78.532 58.946,78.138 60.776,77.997C61.3,77.96 61.802,78.216 62.08,78.662C62.359,79.107 62.368,79.67 62.106,80.125C57.662,87.843 42.613,113.91 38.345,121.303C37.717,122.39 38.089,123.781 39.177,124.409C39.177,124.409 39.178,124.409 39.178,124.409C40.265,125.037 41.656,124.665 42.284,123.577C44.04,120.535 47.212,115.041 47.212,115.041C49.305,111.417 53.945,110.174 57.569,112.266C61.193,114.358 62.436,118.999 60.344,122.623C56.996,128.421 58.986,135.846 64.784,139.193C66.495,140.181 68.348,140.704 70.195,140.802C70.688,140.819 71.136,141.094 71.375,141.525C71.614,141.956 71.609,142.481 71.362,142.908C68.045,148.709 59.243,163.954 57.019,167.806ZM67.609,79.714C67.915,79.182 68.565,78.954 69.137,79.177C69.137,79.177 69.137,79.177 69.137,79.177C76.141,81.908 91.645,90.859 97.512,95.559C101.062,98.404 103.647,102.881 104.335,107.378C105.472,114.808 105.472,132.711 104.335,140.142C103.647,144.638 101.062,149.116 97.512,151.96C91.645,156.66 76.141,165.612 69.137,168.342C67.481,168.988 65.682,169.382 63.852,169.522C63.327,169.559 62.826,169.304 62.547,168.858C62.269,168.412 62.259,167.85 62.522,167.395C66.965,159.677 82.015,133.61 86.283,126.217C86.911,125.129 86.538,123.739 85.451,123.111C85.45,123.111 85.45,123.11 85.45,123.11C84.362,122.482 82.971,122.855 82.343,123.943C80.587,126.984 77.415,132.479 77.415,132.479C75.323,136.102 70.682,137.346 67.059,135.254C63.435,133.161 62.191,128.521 64.283,124.897C67.631,119.099 65.641,111.674 59.843,108.326C58.132,107.339 56.28,106.816 54.432,106.718C53.939,106.701 53.492,106.426 53.253,105.995C53.014,105.564 53.019,105.038 53.265,104.611C56.583,98.811 65.385,83.566 67.609,79.714Z" style="fill:rgb(43,0,255);"/>
    </g>
    <g>
        <g transform="matrix(0.681119,0,0,2.67767,133.337,-19.0246)">
            <path d="M17.123,39.969C16.312,39.969 15.655,39.802 15.655,39.596C15.655,36.805 15.655,19.233 15.655,16.441C15.655,16.235 16.312,16.068 17.123,16.068C19.379,16.068 23.675,16.068 25.932,16.068C26.321,16.068 26.695,16.107 26.97,16.177C27.245,16.247 27.4,16.342 27.4,16.441C27.4,18.056 27.4,24.42 27.4,25.777C27.401,25.836 27.51,25.892 27.697,25.927C27.883,25.962 28.123,25.973 28.346,25.956C29.909,25.84 31.563,25.778 33.273,25.778C42.996,25.778 50.891,27.786 50.891,30.259L50.891,39.596C50.891,39.802 50.234,39.969 49.423,39.969L40.614,39.969C39.803,39.969 39.145,39.802 39.145,39.596C39.145,37.814 39.145,30.259 39.145,30.259C39.145,29.435 36.514,28.766 33.273,28.766C30.032,28.766 27.4,29.435 27.4,30.259L27.4,39.596C27.4,39.802 26.743,39.969 25.932,39.969L17.123,39.969Z"/>
        </g>
        <g transform="matrix(0.681119,0,0,2.67767,133.337,-19.0246)">
            <path d="M17.123,39.969C16.312,39.969 15.655,39.802 15.655,39.596L15.655,16.441C15.655,16.235 16.312,16.068 17.123,16.068L25.932,16.068C26.321,16.068 26.695,16.107 26.97,16.177C27.245,16.247 27.4,16.342 27.4,16.441C27.4,16.441 27.4,24.254 27.4,25.777C27.401,25.836 27.51,25.892 27.697,25.927C27.883,25.962 28.123,25.973 28.346,25.956C29.909,25.84 31.563,25.778 33.273,25.778C42.996,25.778 50.891,27.786 50.891,30.259L50.891,39.596C50.891,39.802 50.234,39.969 49.423,39.969L40.614,39.969C39.803,39.969 39.145,39.802 39.145,39.596L39.145,30.259C39.145,29.435 36.514,28.766 33.273,28.766C30.032,28.766 27.4,29.435 27.4,30.259L27.4,39.596C27.4,39.802 26.743,39.969 25.932,39.969L17.123,39.969ZM17.123,39.409C17.123,39.459 17.2,39.506 17.338,39.541C17.476,39.576 17.662,39.596 17.857,39.596C19.516,39.596 23.539,39.596 25.198,39.596C25.603,39.596 25.932,39.512 25.932,39.409C25.932,38.093 25.932,30.259 25.932,30.259C25.932,29.229 29.221,28.392 33.273,28.392C37.324,28.392 40.614,29.229 40.614,30.259C40.614,30.259 40.614,38.093 40.614,39.409C40.614,39.512 40.942,39.596 41.348,39.596C43.007,39.596 47.03,39.596 48.689,39.596C49.094,39.596 49.423,39.512 49.423,39.409C49.423,38.093 49.423,30.259 49.423,30.259C49.423,27.992 42.186,26.151 33.273,26.151C31.386,26.151 29.574,26.234 27.89,26.385C27.441,26.426 26.942,26.408 26.553,26.338C26.163,26.268 25.932,26.155 25.932,26.033C25.932,26.033 25.932,17.965 25.932,16.628C25.932,16.525 25.603,16.441 25.198,16.441C23.539,16.441 19.516,16.441 17.857,16.441C17.662,16.441 17.476,16.461 17.338,16.496C17.2,16.531 17.123,16.579 17.123,16.628C17.123,18.699 17.123,37.338 17.123,39.409Z" style="fill:white;"/>
        </g>
        <g transform="matrix(-0.681119,0,0,-2.67767,210.663,157.025)">
            <path d="M50.891,20.549C50.891,20.549 50.891,22.362 50.891,23.164C50.891,23.37 50.234,23.537 49.423,23.537L40.614,23.537C39.803,23.537 39.145,23.37 39.145,23.164C39.145,22.362 39.145,20.549 39.145,20.549C39.145,19.725 36.514,19.056 33.273,19.056C30.032,19.056 27.4,19.725 27.4,20.549L27.4,25.903C27.4,25.933 27.457,25.961 27.552,25.979C27.647,25.996 27.77,26.001 27.882,25.992C29.581,25.853 31.393,25.778 33.273,25.778C42.996,25.778 50.891,27.786 50.891,30.259L50.891,39.596C50.891,39.802 50.234,39.969 49.423,39.969L40.614,39.969C39.803,39.969 39.145,39.802 39.145,39.596L39.145,30.259C39.145,29.435 36.514,28.766 33.273,28.766C30.032,28.766 27.4,29.435 27.4,30.259L27.4,39.596C27.4,39.802 26.743,39.969 25.932,39.969L17.123,39.969C16.312,39.969 15.655,39.802 15.655,39.596L15.655,20.549C15.655,18.076 23.549,16.068 33.273,16.068C42.996,16.068 50.891,18.076 50.891,20.549Z"/>
        </g>
        <g transform="matrix(-0.681119,0,0,-2.67767,210.663,157.025)">
            <path d="M50.891,20.549L50.891,23.164C50.891,23.37 50.234,23.537 49.423,23.537L40.614,23.537C39.803,23.537 39.145,23.37 39.145,23.164L39.145,20.549C39.145,19.725 36.514,19.056 33.273,19.056C30.032,19.056 27.4,19.725 27.4,20.549L27.4,25.903C27.4,25.933 27.457,25.961 27.552,25.979C27.647,25.996 27.77,26.001 27.882,25.992C29.581,25.853 31.393,25.778 33.273,25.778C42.996,25.778 50.891,27.786 50.891,30.259L50.891,39.596C50.891,39.802 50.234,39.969 49.423,39.969L40.614,39.969C39.803,39.969 39.145,39.802 39.145,39.596L39.145,30.259C39.145,29.435 36.514,28.766 33.273,28.766C30.032,28.766 27.4,29.435 27.4,30.259L27.4,39.596C27.4,39.802 26.743,39.969 25.932,39.969L17.123,39.969C16.312,39.969 15.655,39.802 15.655,39.596L15.655,20.549C15.655,18.076 23.549,16.068 33.273,16.068C42.996,16.068 50.891,18.076 50.891,20.549ZM48.689,39.596C49.094,39.596 49.423,39.512 49.423,39.409C49.423,38.093 49.423,30.259 49.423,30.259C49.423,27.992 42.186,26.151 33.273,26.151C31.552,26.151 29.893,26.22 28.339,26.347L27.913,26.368L27.485,26.364L27.072,26.335L26.693,26.282L26.373,26.207L26.134,26.116L25.985,26.014L25.932,25.904L25.932,25.903L25.932,20.549C25.932,19.519 29.221,18.682 33.273,18.682C37.324,18.682 40.614,19.519 40.614,20.549C40.614,20.549 40.614,22.379 40.614,22.977C40.614,23.08 40.942,23.164 41.348,23.164C43.007,23.164 47.03,23.164 48.689,23.164C49.094,23.164 49.423,23.08 49.423,22.977C49.423,22.379 49.423,20.549 49.423,20.549C49.423,18.282 42.186,16.441 33.273,16.441C24.359,16.441 17.123,18.282 17.123,20.549C17.123,20.549 17.123,37.439 17.123,39.409C17.123,39.512 17.452,39.596 17.857,39.596C19.516,39.596 23.539,39.596 25.198,39.596C25.603,39.596 25.932,39.512 25.932,39.409C25.932,38.093 25.932,30.259 25.932,30.259C25.932,29.229 29.221,28.392 33.273,28.392C37.324,28.392 40.614,29.229 40.614,30.259C40.614,30.259 40.614,38.093 40.614,39.409C40.614,39.512 40.942,39.596 41.348,39.596C43.007,39.596 47.03,39.596 48.689,39.596Z" style="fill:white;"/>
        </g>
        <g transform="matrix(0.681119,0,0,2.17561,197.337,-10.9575)">
            <path d="M15.655,39.969L15.655,16.528C15.655,16.274 16.312,16.068 17.123,16.068C19.379,16.068 23.675,16.068 25.932,16.068C26.321,16.068 26.695,16.116 26.97,16.203C27.245,16.289 27.4,16.406 27.4,16.528C27.4,18.515 27.4,26.347 27.4,28.018C27.401,28.091 27.51,28.159 27.697,28.202C27.883,28.246 28.123,28.259 28.346,28.238C29.909,28.095 31.563,28.019 33.273,28.019C42.996,28.019 50.891,30.49 50.891,33.534L50.891,39.969C50.891,43.014 42.996,45.485 33.273,45.485C23.549,45.485 15.655,43.014 15.655,39.969ZM39.145,33.534C39.145,32.52 36.514,31.696 33.273,31.696C30.032,31.696 27.4,32.52 27.4,33.534L27.4,39.969C27.4,40.984 30.032,41.808 33.273,41.808C36.514,41.808 39.145,40.984 39.145,39.969L39.145,33.534Z"/>
        </g>
        <g transform="matrix(0.681119,0,0,2.17561,197.337,-10.9575)">
            <path d="M15.655,39.969L15.655,16.528C15.655,16.274 16.312,16.068 17.123,16.068L25.932,16.068C26.321,16.068 26.695,16.116 26.97,16.203C27.245,16.289 27.4,16.406 27.4,16.528C27.4,16.528 27.4,26.143 27.4,28.018C27.401,28.091 27.51,28.159 27.697,28.202C27.883,28.246 28.123,28.259 28.346,28.238C29.909,28.095 31.563,28.019 33.273,28.019C42.996,28.019 50.891,30.49 50.891,33.534L50.891,39.969C50.891,43.014 42.996,45.485 33.273,45.485C23.549,45.485 15.655,43.014 15.655,39.969ZM25.932,16.757C25.932,16.63 25.603,16.528 25.198,16.528C23.539,16.528 19.516,16.528 17.857,16.528C17.452,16.528 17.123,16.63 17.123,16.757C17.123,19.182 17.123,39.969 17.123,39.969C17.123,42.76 24.359,45.025 33.273,45.025C42.186,45.025 49.423,42.76 49.423,39.969L49.423,33.534C49.423,30.744 42.186,28.478 33.273,28.478C31.386,28.478 29.574,28.58 27.89,28.766C27.441,28.816 26.942,28.794 26.553,28.708C26.163,28.622 25.932,28.482 25.932,28.333C25.932,28.333 25.932,18.403 25.932,16.757ZM40.614,33.534L40.614,39.969C40.614,41.238 37.324,42.268 33.273,42.268C29.221,42.268 25.932,41.238 25.932,39.969L25.932,33.534C25.932,32.266 29.221,31.236 33.273,31.236C37.324,31.236 40.614,32.266 40.614,33.534ZM39.145,33.534C39.145,32.52 36.514,31.696 33.273,31.696C30.032,31.696 27.4,32.52 27.4,33.534L27.4,39.969C27.4,40.984 30.032,41.808 33.273,41.808C36.514,41.808 39.145,40.984 39.145,39.969L39.145,33.534Z" style="fill:white;"/>
        </g>
        <g transform="matrix(1,0,0,1,196,-72)">
            <path d="M44,134C44,127.377 49.377,122 56,122C62.623,122 68,127.377 68,134L68,141C68,141.552 67.552,142 67,142L61,142C60.448,142 60,141.552 60,141C60,138.854 60,134 60,134C60,131.792 58.208,130 56,130C53.792,130 52,131.792 52,134L52,159C52,159.552 51.552,160 51,160C49.463,160 46.537,160 45,160C44.448,160 44,159.552 44,159C44,154.228 44,134 44,134Z"/>
        </g>
        <g transform="matrix(1,0,0,1,196,-72)">
            <path d="M44,134C44,127.377 49.377,122 56,122C62.623,122 68,127.377 68,134L68,141C68,141.552 67.552,142 67,142L61,142C60.448,142 60,141.552 60,141L60,134C60,131.792 58.208,130 56,130C53.792,130 52,131.792 52,134L52,159C52,159.552 51.552,160 51,160L45,160C44.448,160 44,159.552 44,159L44,134ZM50.5,159C50.776,159 51,158.776 51,158.5C51,154.975 51,134 51,134C51,131.24 53.24,129 56,129C58.76,129 61,131.24 61,134C61,134 61,138.899 61,140.5C61,140.776 61.224,141 61.5,141C62.63,141 65.37,141 66.5,141C66.776,141 67,140.776 67,140.5C67,138.899 67,134 67,134C67,127.929 62.071,123 56,123C49.929,123 45,127.929 45,134C45,134 45,154.975 45,158.5C45,158.776 45.224,159 45.5,159C46.63,159 49.37,159 50.5,159Z" style="fill:white;"/>
        </g>
        <g transform="matrix(0.681119,0,0,1.58987,261.337,24.4541)">
            <path d="M25.932,16.068C26.743,16.068 27.4,16.35 27.4,16.697C27.4,20.068 27.4,35.969 27.4,39.34C27.4,39.688 26.743,39.969 25.932,39.969C23.675,39.969 19.379,39.969 17.123,39.969C16.312,39.969 15.655,39.688 15.655,39.34C15.655,35.969 15.655,20.068 15.655,16.697C15.655,16.35 16.312,16.068 17.123,16.068C19.379,16.068 23.675,16.068 25.932,16.068ZM25.932,6.004C26.743,6.004 27.4,6.286 27.4,6.633L27.4,10.407C27.4,10.754 26.743,11.036 25.932,11.036L17.123,11.036C16.312,11.036 15.655,10.754 15.655,10.407L15.655,6.633C15.655,6.286 16.312,6.004 17.123,6.004L25.932,6.004Z"/>
        </g>
        <g transform="matrix(0.681119,0,0,1.58987,261.337,24.4541)">
            <path d="M25.932,16.068C26.743,16.068 27.4,16.35 27.4,16.697L27.4,39.34C27.4,39.688 26.743,39.969 25.932,39.969L17.123,39.969C16.312,39.969 15.655,39.688 15.655,39.34L15.655,16.697C15.655,16.35 16.312,16.068 17.123,16.068L25.932,16.068ZM17.857,16.697C17.662,16.697 17.476,16.73 17.338,16.789C17.2,16.848 17.123,16.928 17.123,17.011C17.123,19.538 17.123,36.499 17.123,39.026C17.123,39.109 17.2,39.189 17.338,39.248C17.476,39.307 17.662,39.34 17.857,39.34C19.516,39.34 23.539,39.34 25.198,39.34C25.393,39.34 25.579,39.307 25.717,39.248C25.855,39.189 25.932,39.109 25.932,39.026C25.932,36.499 25.932,19.538 25.932,17.011C25.932,16.928 25.855,16.848 25.717,16.789C25.579,16.73 25.392,16.697 25.198,16.697C23.539,16.697 19.516,16.697 17.857,16.697ZM25.932,6.004C26.743,6.004 27.4,6.286 27.4,6.633L27.4,10.407C27.4,10.754 26.743,11.036 25.932,11.036L17.123,11.036C16.312,11.036 15.655,10.754 15.655,10.407L15.655,6.633C15.655,6.286 16.312,6.004 17.123,6.004L25.932,6.004ZM17.857,6.633C17.662,6.633 17.476,6.666 17.338,6.725C17.2,6.784 17.123,6.864 17.123,6.948C17.123,7.658 17.123,9.382 17.123,10.093C17.123,10.176 17.2,10.256 17.338,10.315C17.476,10.374 17.662,10.407 17.857,10.407C19.516,10.407 23.539,10.407 25.198,10.407C25.392,10.407 25.579,10.374 25.717,10.315C25.855,10.256 25.932,10.176 25.932,10.093C25.932,9.382 25.932,7.658 25.932,6.948C25.932,6.864 25.855,6.784 25.717,6.725C25.579,6.666 25.392,6.633 25.198,6.633C23.539,6.633 19.516,6.633 17.857,6.633Z" style="fill:white;"/>
        </g>
        <g transform="matrix(-0.681119,0,0,2.17561,322.663,-10.9575)">
            <path d="M15.655,39.969L15.655,16.528C15.655,16.274 16.312,16.068 17.123,16.068C19.379,16.068 23.675,16.068 25.932,16.068C26.321,16.068 26.695,16.116 26.97,16.203C27.245,16.289 27.4,16.406 27.4,16.528C27.4,18.515 27.4,26.347 27.4,28.018C27.401,28.091 27.51,28.159 27.697,28.202C27.883,28.246 28.123,28.259 28.346,28.238C29.909,28.095 31.563,28.019 33.273,28.019C42.996,28.019 50.891,30.49 50.891,33.534L50.891,39.969C50.891,43.014 42.996,45.485 33.273,45.485C23.549,45.485 15.655,43.014 15.655,39.969ZM39.145,33.534C39.145,32.52 36.514,31.696 33.273,31.696C30.032,31.696 27.4,32.52 27.4,33.534L27.4,39.969C27.4,40.984 30.032,41.808 33.273,41.808C36.514,41.808 39.145,40.984 39.145,39.969L39.145,33.534Z"/>
        </g>
        <g transform="matrix(-0.681119,0,0,2.17561,322.663,-10.9575)">
            <path d="M15.655,39.969C15.655,43.014 23.549,45.485 33.273,45.485C42.996,45.485 50.891,43.014 50.891,39.969L50.891,33.534C50.891,30.49 42.996,28.019 33.273,28.019C31.563,28.019 29.909,28.095 28.345,28.238C28.124,28.259 27.883,28.245 27.697,28.202C27.512,28.159 27.402,28.091 27.402,28.018C27.4,26.143 27.4,16.528 27.4,16.528C27.4,16.406 27.245,16.289 26.97,16.203C26.695,16.116 26.321,16.068 25.932,16.068L17.123,16.068C16.312,16.068 15.655,16.274 15.655,16.528L15.655,39.969ZM25.198,16.528C25.603,16.528 25.932,16.63 25.932,16.757C25.932,18.403 25.932,28.333 25.932,28.333C25.932,28.482 26.163,28.622 26.553,28.708C26.942,28.794 27.441,28.816 27.89,28.766C29.574,28.58 31.386,28.478 33.273,28.478C42.186,28.478 49.423,30.744 49.423,33.534L49.423,39.969C49.423,42.76 42.186,45.025 33.273,45.025C24.359,45.025 17.123,42.76 17.123,39.969C17.123,39.969 17.123,19.182 17.123,16.757C17.123,16.63 17.452,16.528 17.857,16.528C19.516,16.528 23.539,16.528 25.198,16.528ZM40.614,33.534C40.614,32.266 37.324,31.236 33.273,31.236C29.221,31.236 25.932,32.266 25.932,33.534L25.932,39.969C25.932,41.238 29.221,42.268 33.273,42.268C37.324,42.268 40.614,41.238 40.614,39.969L40.614,33.534ZM39.145,33.534L39.145,39.969C39.145,40.984 36.514,41.808 33.273,41.808C30.032,41.808 27.4,40.984 27.4,39.969L27.4,33.534C27.4,32.52 30.032,31.696 33.273,31.696C36.514,31.696 39.145,32.52 39.145,33.534Z" style="fill:white;"/>
        </g>
    </g>
</svg>
